<svg width="13" height="19" viewBox="0 0 13 19" fill="none" xmlns="http://www.w3.org/2000/svg">
<path fill-rule="evenodd" clip-rule="evenodd" d="M10 0C11.2745 0 12.3077 1.12712 12.3077 2.51748V15.9441C12.3077 17.3344 11.2745 18.4615 10 18.4615H2.30769C1.03319 18.4615 0 17.3344 0 15.9441V2.51748C0 1.12712 1.03319 0 2.30769 0H10ZM5.38461 15.3846C5.38461 14.9598 5.72901 14.6154 6.15384 14.6154C6.57868 14.6154 6.92307 14.9598 6.92307 15.3846C6.92307 15.8094 6.57868 16.1538 6.15384 16.1538C5.72901 16.1538 5.38461 15.8094 5.38461 15.3846ZM3.30769 2.30768C2.75541 2.30768 2.30769 2.75539 2.30769 3.30768V12.0769C2.30769 12.6292 2.75541 13.0769 3.30769 13.0769H9C9.55229 13.0769 10 12.6292 10 12.0769V3.30768C10 2.75539 9.55229 2.30768 9 2.30768H3.30769Z" fill="#9F9F9F"/>
</svg>
