<svg width="23" height="23" viewBox="0 0 23 23" fill="none" xmlns="http://www.w3.org/2000/svg">
<path fill-rule="evenodd" clip-rule="evenodd" d="M21.5673 7.89238V19.2726C21.5673 20.3158 20.7518 21.1693 19.7348 21.1693H5.07503C4.058 21.1693 3.24255 20.3158 3.24255 19.2726V7.89238C3.24255 7.10525 3.70983 6.40346 4.37869 6.13793L15.9599 1.25391L16.583 2.82817L9.01484 5.99567H19.7348C20.7518 5.99567 21.5673 6.83971 21.5673 7.89238ZM5.07501 7.89233V10.7366H16.0698V8.84042H17.9023V10.7366H19.7348V7.89233H5.07501ZM19.7348 19.2725V12.634H5.07501V19.2725H19.7348ZM6.44934 15.9344C6.44934 14.625 7.47487 13.5635 8.73993 13.5635C10.005 13.5635 11.0305 14.625 11.0305 15.9344C11.0305 17.2438 10.005 18.3052 8.73993 18.3052C7.47487 18.3052 6.44934 17.2438 6.44934 15.9344Z" fill="#71737B"/>
</svg>
