<svg width="40" height="40" viewBox="0 0 40 40" fill="none" xmlns="http://www.w3.org/2000/svg">
<path fill-rule="evenodd" clip-rule="evenodd" d="M19.9462 39.8924C8.93067 39.8924 0 30.9618 0 19.9462C0 8.93067 8.93067 0 19.9462 0C30.9618 0 39.8924 8.93067 39.8924 19.9462C39.8924 30.9618 30.9618 39.8924 19.9462 39.8924Z" fill="#55ACEE"/>
<path fill-rule="evenodd" clip-rule="evenodd" d="M27.8534 14.5119C28.7108 14.015 29.3684 13.2296 29.68 12.2935C28.8772 12.7522 27.9881 13.0864 27.0429 13.2662C26.2854 12.4864 25.2059 12 24.0114 12C21.7177 12 19.8597 13.7963 19.8597 16.0098C19.8597 16.3239 19.8957 16.6308 19.967 16.9243C16.5167 16.7564 13.4565 15.1601 11.4093 12.7331C11.0509 13.326 10.8469 14.015 10.8469 14.7496C10.8469 16.1414 11.58 17.3695 12.6928 18.088C12.0124 18.0675 11.3729 17.8865 10.8121 17.5856C10.8121 17.6032 10.8121 17.6192 10.8121 17.6368C10.8121 19.5789 12.2438 21.1999 14.1428 21.5681C13.7952 21.6601 13.4279 21.7098 13.0497 21.7098C12.7822 21.7098 12.5221 21.6848 12.2678 21.638C12.7973 23.2314 14.3305 24.3906 16.1478 24.4228C14.7265 25.4991 12.9363 26.1387 10.9905 26.1387C10.6545 26.1387 10.3236 26.1212 10 26.0834C11.837 27.221 14.0189 27.8853 16.3638 27.8853C24.001 27.8853 28.1786 21.7737 28.1786 16.4745C28.1786 16.3007 28.1739 16.1283 28.1666 15.956C28.9783 15.3908 29.6816 14.6842 30.2378 13.8808C29.4938 14.1993 28.6926 14.4154 27.8534 14.5119Z" fill="white"/>
</svg>
